<mxfile host="app.diagrams.net" agent="Mozilla/5.0 (X11; Linux x86_64; rv:109.0) Gecko/20100101 Firefox/115.0" version="26.0.10">
  <diagram name="Page-1" id="SotT7PKfqAtj6fm-6zKW">
    <mxGraphModel dx="559" dy="329" grid="1" gridSize="10" guides="1" tooltips="1" connect="1" arrows="1" fold="1" page="1" pageScale="1" pageWidth="827" pageHeight="1169" math="0" shadow="0">
      <root>
        <mxCell id="0" />
        <mxCell id="1" parent="0" />
        <mxCell id="Cbqt6V5ET0-gixzIFbC0-1" value="Horizontal Tree Layout" style="swimlane;startSize=20;horizontal=0;childLayout=treeLayout;horizontalTree=1;sortEdges=1;resizable=0;containerType=tree;fontSize=12;" vertex="1" parent="1">
          <mxGeometry x="90" y="220" width="650" height="240" as="geometry" />
        </mxCell>
        <mxCell id="Cbqt6V5ET0-gixzIFbC0-2" value="Projet de migration technique d’une Base de&lt;br&gt;Données" style="whiteSpace=wrap;html=1;" vertex="1" parent="Cbqt6V5ET0-gixzIFbC0-1">
          <mxGeometry x="40" y="85" width="110" height="70" as="geometry" />
        </mxCell>
        <mxCell id="Cbqt6V5ET0-gixzIFbC0-3" value="Lot 1 : Préparation" style="whiteSpace=wrap;html=1;" vertex="1" parent="Cbqt6V5ET0-gixzIFbC0-1">
          <mxGeometry x="200" y="20" width="110" height="40" as="geometry" />
        </mxCell>
        <mxCell id="Cbqt6V5ET0-gixzIFbC0-4" value="" style="edgeStyle=elbowEdgeStyle;elbow=horizontal;html=1;rounded=1;curved=0;sourcePerimeterSpacing=0;targetPerimeterSpacing=0;startSize=6;endSize=6;" edge="1" parent="Cbqt6V5ET0-gixzIFbC0-1" source="Cbqt6V5ET0-gixzIFbC0-2" target="Cbqt6V5ET0-gixzIFbC0-3">
          <mxGeometry relative="1" as="geometry" />
        </mxCell>
        <mxCell id="Cbqt6V5ET0-gixzIFbC0-5" value="Lot 2 : Réalisation" style="whiteSpace=wrap;html=1;" vertex="1" parent="Cbqt6V5ET0-gixzIFbC0-1">
          <mxGeometry x="200" y="100" width="100" height="40" as="geometry" />
        </mxCell>
        <mxCell id="Cbqt6V5ET0-gixzIFbC0-6" value="" style="edgeStyle=elbowEdgeStyle;elbow=horizontal;html=1;rounded=1;curved=0;sourcePerimeterSpacing=0;targetPerimeterSpacing=0;startSize=6;endSize=6;" edge="1" parent="Cbqt6V5ET0-gixzIFbC0-1" source="Cbqt6V5ET0-gixzIFbC0-2" target="Cbqt6V5ET0-gixzIFbC0-5">
          <mxGeometry relative="1" as="geometry" />
        </mxCell>
        <mxCell id="Cbqt6V5ET0-gixzIFbC0-7" value="" style="edgeStyle=elbowEdgeStyle;elbow=horizontal;html=1;rounded=1;curved=0;sourcePerimeterSpacing=0;targetPerimeterSpacing=0;startSize=6;endSize=6;" edge="1" target="Cbqt6V5ET0-gixzIFbC0-8" source="Cbqt6V5ET0-gixzIFbC0-3" parent="Cbqt6V5ET0-gixzIFbC0-1">
          <mxGeometry relative="1" as="geometry">
            <mxPoint x="240" y="195" as="sourcePoint" />
          </mxGeometry>
        </mxCell>
        <mxCell id="Cbqt6V5ET0-gixzIFbC0-8" value="Lot 1.1 : Schéma de la BdD" style="whiteSpace=wrap;html=1;" vertex="1" parent="Cbqt6V5ET0-gixzIFbC0-1">
          <mxGeometry x="360" y="20" width="110" height="40" as="geometry" />
        </mxCell>
        <mxCell id="Cbqt6V5ET0-gixzIFbC0-11" value="" style="edgeStyle=elbowEdgeStyle;elbow=horizontal;html=1;rounded=1;curved=0;sourcePerimeterSpacing=0;targetPerimeterSpacing=0;startSize=6;endSize=6;" edge="1" target="Cbqt6V5ET0-gixzIFbC0-12" source="Cbqt6V5ET0-gixzIFbC0-2" parent="Cbqt6V5ET0-gixzIFbC0-1">
          <mxGeometry relative="1" as="geometry">
            <mxPoint x="240" y="275" as="sourcePoint" />
          </mxGeometry>
        </mxCell>
        <mxCell id="Cbqt6V5ET0-gixzIFbC0-12" value="Lot 3 : Recette" style="whiteSpace=wrap;html=1;" vertex="1" parent="Cbqt6V5ET0-gixzIFbC0-1">
          <mxGeometry x="200" y="180" width="100" height="40" as="geometry" />
        </mxCell>
        <mxCell id="Cbqt6V5ET0-gixzIFbC0-13" value="" style="edgeStyle=elbowEdgeStyle;elbow=horizontal;html=1;rounded=1;curved=0;sourcePerimeterSpacing=0;targetPerimeterSpacing=0;startSize=6;endSize=6;" edge="1" target="Cbqt6V5ET0-gixzIFbC0-14" source="Cbqt6V5ET0-gixzIFbC0-8" parent="Cbqt6V5ET0-gixzIFbC0-1">
          <mxGeometry relative="1" as="geometry">
            <mxPoint x="400" y="260" as="sourcePoint" />
          </mxGeometry>
        </mxCell>
        <mxCell id="Cbqt6V5ET0-gixzIFbC0-14" value="Lot 1.1.A : Rétroconception de la BdD existante" style="whiteSpace=wrap;html=1;" vertex="1" parent="Cbqt6V5ET0-gixzIFbC0-1">
          <mxGeometry x="520" y="20" width="110" height="40" as="geometry" />
        </mxCell>
      </root>
    </mxGraphModel>
  </diagram>
</mxfile>
